<?xml version="1.0" encoding="UTF-8"?>
<svg version="1.1" xmlns="http://www.w3.org/2000/svg" width="1344" height="768">
<path d="M0 0 C443.52 0 887.04 0 1344 0 C1344 253.44 1344 506.88 1344 768 C900.48 768 456.96 768 0 768 C0 514.56 0 261.12 0 0 Z " fill="#000000" transform="translate(0,0)"/>
<path d="M0 0 C0.66 0 1.32 0 2 0 C10.84332586 19.20978685 19.66837201 38.42735692 28.40478516 57.68603516 C31.56672324 64.65478782 34.73796011 71.61905207 37.9296875 78.57421875 C45.12101639 94.24996049 52.22610944 109.95814652 59.20187378 125.73110962 C63.53951459 135.53393904 67.95399908 145.29161517 72.5 155 C77.40061467 165.46569369 82.13869139 175.99406559 86.8125 186.5625 C92.33859825 199.05715465 97.9357317 211.51622931 103.625 223.9375 C103.95488922 224.65785431 104.28477844 225.37820862 104.62466431 226.12039185 C105.57465863 228.19383593 106.52545597 230.26690964 107.4765625 232.33984375 C107.77421005 232.98919388 108.0718576 233.63854401 108.37852478 234.30757141 C109.8363724 237.48373945 111.30442893 240.65452442 112.79199219 243.81689453 C113.34274414 244.9923584 113.89349609 246.16782227 114.4609375 247.37890625 C114.95126465 248.41732666 115.4415918 249.45574707 115.94677734 250.52563477 C117 253 117 253 117 255 C111.1106665 253.36190724 106.05726649 250.4519571 100.75 247.5 C99.77345459 246.96173584 98.79690918 246.42347168 97.79077148 245.86889648 C94.85787245 244.2506547 91.92875314 242.62572988 89 241 C87.45463943 240.14675071 85.90908428 239.29385369 84.36328125 238.44140625 C82.21289429 237.255403 80.06608239 236.06452308 77.92773438 234.85693359 C73.65621111 232.44586638 69.34813931 230.14313212 64.98046875 227.91015625 C62.90356081 226.81526544 60.82673701 225.72021499 58.75 224.625 C57.28445679 223.90389038 57.28445679 223.90389038 55.78930664 223.16821289 C47.90705674 218.94134009 45.31322951 214.12091837 42 206 C41.3773337 204.58310619 40.74941332 203.16851358 40.1171875 201.75585938 C38.30948802 197.70720835 36.53592709 193.64459992 34.77099609 189.57714844 C28.65344253 175.48618355 22.43155008 161.45038867 16 147.5 C9.19049863 132.72465466 2.6156967 117.85232321 -3.88671875 102.93945312 C-4.24666931 102.11576233 -4.60661987 101.29207153 -4.97747803 100.44342041 C-5.67786594 98.83651076 -6.3744451 97.22793494 -7.06695557 95.61761475 C-8.5783284 92.12488754 -10.12152226 88.6954365 -11.92480469 85.34277344 C-16.17124749 77.24205223 -16.3155616 72.72647463 -14 64 C-13.4945115 61.66834296 -13.01853681 59.33149817 -12.54148865 56.99386597 C-11.62485458 52.53016244 -10.65128587 48.07871402 -9.6875 43.625 C-9.28254065 41.74432337 -8.8776745 39.86362667 -8.47290039 37.98291016 C-5.73828662 25.30126015 -2.94418796 12.63485687 0 0 Z " fill="#F8F8F7" transform="translate(682,231)"/>
<path d="M0 0 C1.44886336 2.69425165 2.3815223 5.13037063 3.0078125 8.12109375 C3.18594482 8.95592285 3.36407715 9.79075195 3.54760742 10.65087891 C3.73814697 11.57046387 3.92868652 12.49004883 4.125 13.4375 C4.5607593 15.49618664 4.99699255 17.55477299 5.43359375 19.61328125 C5.67706543 20.76779785 5.92053711 21.92231445 6.17138672 23.11181641 C7.10856915 27.50944971 8.07024811 31.90135504 9.03515625 36.29296875 C9.57411908 38.75425177 10.11266627 41.21562535 10.65106201 43.67703247 C11.00458841 45.2903059 11.35925681 46.90332956 11.71514893 48.51608276 C12.70496941 53.00656329 13.65365498 57.50262382 14.56835938 62.00897217 C14.96368014 63.83246746 15.43988378 65.63793933 15.92382812 67.43994141 C18.26875876 77.42743797 14.51419918 84.4174578 10.125 93.125 C9.38319381 94.65910783 8.64498176 96.19495815 7.91015625 97.73242188 C6.38388489 100.91868327 4.84257417 104.096966 3.29003906 107.27050781 C0.06101365 113.90061495 -2.976537 120.61654158 -6.01812744 127.33410645 C-7.67052566 130.97909949 -9.33555149 134.6183103 -11 138.2578125 C-11.33009064 138.98021118 -11.66018127 139.70260986 -12.00027466 140.44689941 C-13.99259188 144.80507433 -15.992867 149.15949693 -18.00010681 153.51081848 C-19.00138883 155.68270001 -19.99996088 157.85581302 -20.99829102 160.02905273 C-22.32648179 162.91915791 -23.66701398 165.8030968 -25.01538086 168.68383789 C-28.5827298 176.35885313 -31.82918466 184.06041098 -34.75390625 192.00390625 C-45.50454178 220.7161267 -45.50454178 220.7161267 -58.125 226.5625 C-61.07827296 227.77330055 -64.04024412 228.87250811 -67.05957031 229.90722656 C-71.98355988 231.7371649 -76.44220829 234.34928147 -81 236.9375 C-82.7960507 237.92207808 -84.59293245 238.90514163 -86.390625 239.88671875 C-90.4177219 242.11052012 -94.42375755 244.36905798 -98.421875 246.64453125 C-99.47890625 247.24595947 -100.5359375 247.8473877 -101.625 248.46704102 C-103.67438794 249.6363129 -105.72135747 250.80983597 -107.765625 251.98803711 C-108.6834375 252.51276611 -109.60125 253.03749512 -110.546875 253.578125 C-111.35995117 254.04637695 -112.17302734 254.51462891 -113.01074219 254.99707031 C-115 256 -115 256 -117 256 C-114.6855024 248.1928887 -111.30430627 241.00030321 -107.79467773 233.67993164 C-105.98151289 229.89639602 -104.18628328 226.10436804 -102.390625 222.3125 C-102.02203369 221.53483276 -101.65344238 220.75716553 -101.27368164 219.95593262 C-97.59475291 212.17669117 -94.03933929 204.34348178 -90.5 196.5 C-85.43429475 185.28437196 -80.26286807 174.12444278 -75 163 C-69.49022076 151.35102272 -64.08456411 139.66091678 -58.77490234 127.91943359 C-53.41979287 116.0801767 -47.97519966 104.28416322 -42.5 92.5 C-35.19776516 76.7791782 -27.98321298 61.02113976 -20.82835388 45.23280334 C-17.3218071 37.49824751 -13.79565804 29.7726481 -10.26620483 22.04852295 C-9.55352547 20.48864087 -8.84113801 18.92862539 -8.12905884 17.36846924 C-7.14274637 15.20755708 -6.15549734 13.04707537 -5.16796875 10.88671875 C-4.87598602 10.24666397 -4.5840033 9.60660919 -4.28317261 8.94715881 C-2.90607873 5.93765856 -1.50599887 2.94735669 0 0 Z " fill="#F7F8F7" transform="translate(636,230)"/>
</svg>
