<?xml version="1.0" encoding="UTF-8"?>
<svg version="1.1" xmlns="http://www.w3.org/2000/svg" width="1344" height="768">
<path d="M0 0 C443.52 0 887.04 0 1344 0 C1344 253.44 1344 506.88 1344 768 C900.48 768 456.96 768 0 768 C0 514.56 0 261.12 0 0 Z " fill="#F8F8F8" transform="translate(0,0)"/>
<path d="M0 0 C0.66 0 1.32 0 2 0 C2.48654053 1.07854248 2.97308105 2.15708496 3.47436523 3.26831055 C5.79385312 8.40874398 8.11529422 13.54829387 10.4375 18.6875 C10.8652774 19.63425598 11.29305481 20.58101196 11.73379517 21.55645752 C17.66833693 34.68600405 23.65103702 47.79203942 29.6875 60.875 C35.67924042 73.86240213 41.5426514 86.90181089 47.32748413 99.98260498 C51.93387491 110.39687131 56.63101353 120.7615181 61.4362793 131.0859375 C65.6051164 140.0737526 69.62031275 149.12581752 73.625 158.1875 C79.72625733 171.99059561 85.98480092 185.71451502 92.33190918 199.40615845 C98.91619635 213.61120077 105.40281461 227.85636214 111.73730469 242.17480469 C112.56501708 244.02675515 113.40891427 245.87157516 114.27050781 247.70800781 C114.64788086 248.51850586 115.02525391 249.32900391 115.4140625 250.1640625 C115.91220459 251.21134521 115.91220459 251.21134521 116.42041016 252.27978516 C116.6116748 252.84745605 116.80293945 253.41512695 117 254 C116.67 254.66 116.34 255.32 116 256 C84.35335911 238.60763311 84.35335911 238.60763311 71.87109375 231.44677734 C67.70511042 229.0605748 63.54214584 226.73857507 59.234375 224.6171875 C58.50259033 224.24456787 57.77080566 223.87194824 57.0168457 223.48803711 C55.70706753 222.82630463 54.38368168 222.19025585 53.04370117 221.59204102 C46.73821083 218.34909291 44.71681013 212.23245708 42 206 C41.59563721 205.10756592 41.19127441 204.21513184 40.7746582 203.2956543 C39.55460066 200.58217905 38.36850152 197.85568778 37.1875 195.125 C32.39373123 184.13920919 27.52476097 173.18883714 22.625 162.25 C22.25862427 161.43172729 21.89224854 160.61345459 21.51477051 159.77038574 C17.34419529 150.45587207 13.16796328 141.14390133 8.98876953 131.83325195 C7.44235079 128.38581389 5.89869588 124.93714904 4.35546875 121.48828125 C2.17865527 116.6238305 -0.00821082 111.76407561 -2.20152283 106.90704346 C-3.69067428 103.60551796 -5.17384733 100.30132658 -6.65597534 96.99664307 C-7.37866433 95.38870089 -8.10381883 93.7818643 -8.83157349 92.1762085 C-9.8473726 89.93414661 -10.85428697 87.68828603 -11.859375 85.44140625 C-12.16288376 84.77707077 -12.46639252 84.11273529 -12.77909851 83.42826843 C-15.61046744 77.05248559 -16.3984141 72.44959781 -14.84765625 65.64453125 C-14.56937988 64.39841064 -14.29110352 63.15229004 -14.00439453 61.8684082 C-13.69065568 60.51638634 -13.37668484 59.16441829 -13.0625 57.8125 C-12.74496623 56.40931628 -12.42841538 55.00590981 -12.11279297 53.60229492 C-11.26646083 49.8520726 -10.40622876 46.1051734 -9.54266357 42.35888672 C-8.61685563 38.33452213 -7.70171634 34.30772889 -6.78515625 30.28125 C-5.72053405 25.60748302 -4.65407201 20.93417011 -3.57836914 16.26293945 C-3.41344467 15.5462207 -3.2485202 14.82950195 -3.07859802 14.09106445 C-2.6319458 12.15147114 -2.18441321 10.21208063 -1.73681641 8.27270508 C-1.11733199 5.52115154 -0.53712823 2.76860419 0 0 Z " fill="#020202" transform="translate(682,231)"/>
<path d="M0 0 C0.66 0 1.32 0 2 0 C5.62338527 15.24910873 9.01290669 30.53984874 12.25 45.875 C12.42217041 46.68656555 12.59434082 47.4981311 12.77172852 48.33428955 C13.58924229 52.19309112 14.39143243 56.05333903 15.15673828 59.92285156 C15.65466818 62.42325814 16.22591841 64.8236787 16.90185547 67.28808594 C18.95853704 75.55602828 16.459427 81.22222196 12.65707397 88.51858521 C11.2203409 91.27687991 9.85568721 94.06912632 8.4841156 96.86024475 C7.75803432 98.3357685 7.02829624 99.80949797 6.2950592 101.28147888 C2.69082333 108.53421655 -0.59073462 115.9153922 -3.83676147 123.33380127 C-10.4689892 138.48257026 -17.34237629 153.513148 -24.33666992 168.49780273 C-28.09015034 176.55990894 -31.73960328 184.64745701 -35.19140625 192.84375 C-35.8623972 194.42242774 -36.53353695 196.00104224 -37.20483398 197.57958984 C-38.45730792 200.52772502 -39.67689891 203.48665887 -40.87915039 206.45556641 C-44.00989019 213.97885204 -46.40756578 218.69500092 -54 222 C-55.90393056 223.03290714 -57.80190196 224.07683909 -59.6953125 225.12890625 C-61.83715266 226.27603475 -63.98044979 227.42044595 -66.125 228.5625 C-68.44562784 229.80409829 -70.76593496 231.04629619 -73.0859375 232.2890625 C-74.24448242 232.90942383 -75.40302734 233.52978516 -76.59667969 234.16894531 C-81.66417228 236.89535811 -86.70616798 239.66765028 -91.75 242.4375 C-99.7433831 246.81890367 -107.7967295 251.02435354 -116 255 C-113.62371046 246.88405728 -110.02039031 239.42423004 -106.36798096 231.82681274 C-104.43347035 227.80058681 -102.51769446 223.76546599 -100.6015625 219.73046875 C-100.21104706 218.9087468 -99.82053162 218.08702484 -99.41818237 217.24040222 C-95.73316762 209.47018251 -92.16347541 201.65029908 -88.625 193.8125 C-83.0274944 181.42580803 -77.34988497 169.07834281 -71.625 156.75 C-65.51733282 143.59442329 -59.42619603 130.43165787 -53.375 117.25 C-53.02743652 116.49299805 -52.67987305 115.73599609 -52.32177734 114.95605469 C-49.88019501 109.63782383 -47.4399209 104.31899326 -45 99 C-42.55956722 93.67989086 -40.11869798 88.35998281 -37.67657471 83.04064941 C-36.97749774 81.51784724 -36.278563 79.99497976 -35.57977295 78.4720459 C-31.41774669 69.40268621 -27.23513332 60.34328478 -23.0234375 51.296875 C-11.13280627 25.81716306 -11.13280627 25.81716306 0 0 Z " fill="#020202" transform="translate(635,231)"/>
</svg>
